# xmcd
#
# Track frame offsets:
#	150
#	12795
#	25014
#	39204
#	51291
#	64692
#	78356
#	93071
#	106998
#	116983
#	129595
#	142077
#	154826
#	169541
#	183205
#	195292
#	210008
#	225510
#	237335
#	249160
#
# Disc length: 3519 seconds
#
# Revision: 1
# Processed by: cddbd v1.5.2PL0 Copyright (c) Steve Scherf et al.
# Submitted via: EZCDAudioConverter 2.3.5.1
#
DISCID=ed0dbd14
DTITLE=금잔디 - 트롯트 금잔디 4
DYEAR=2011
DGENRE=Trot
TTITLE0=붉은입술
TTITLE1=시계바늘
TTITLE2=I love you
TTITLE3=그 다음은 나도 몰라요
TTITLE4=꽃비 여인
TTITLE5=너도 역시 여자 였구나
TTITLE6=고목나무
TTITLE7=장미같은 여자
TTITLE8=로망
TTITLE9=남자라는 이유로
TTITLE10=아리랑 처녀
TTITLE11=여정
TTITLE12=그대의 빈자리
TTITLE13=떠날 수 없는 당신
TTITLE14=꽃망울
TTITLE15=사랑의 마침표
TTITLE16=네 박자
TTITLE17=고장난 벽시계
TTITLE18=아미새
TTITLE19=천년을 빌려 준다면
EXTD=
EXTT0=
EXTT1=
EXTT2=
EXTT3=
EXTT4=
EXTT5=
EXTT6=
EXTT7=
EXTT8=
EXTT9=
EXTT10=
EXTT11=
EXTT12=
EXTT13=
EXTT14=
EXTT15=
EXTT16=
EXTT17=
EXTT18=
EXTT19=
PLAYORDER=
